<?xml version="1.0" encoding="UTF-8" standalone="no"?><svg width="33" height="33" viewBox="0 0 33 33" fill="none" xmlns="http://www.w3.org/2000/svg">
<g clip-path="url(#clip0_2_21)">
<path d="M30.8008 14.3774H27.2146L21.8008 8.96361C21.6158 8.77708 21.3955 8.6292 21.1528 8.52856C20.9101 8.42792 20.6498 8.37652 20.3871 8.37736H6.33581C6.0073 8.37797 5.684 8.45949 5.39448 8.61471C5.10496 8.76994 4.85813 8.99409 4.67581 9.26736L0.968312 14.8224C0.859377 14.987 0.801138 15.18 0.800812 15.3774L0.800812 21.3774C0.800812 21.9078 1.01153 22.4165 1.3866 22.7916C1.76167 23.1666 2.27038 23.3774 2.80081 23.3774H4.92581C5.14611 24.2378 5.64651 25.0004 6.34812 25.545C7.04973 26.0896 7.91264 26.3852 8.80081 26.3852C9.68898 26.3852 10.5519 26.0896 11.2535 25.545C11.9551 25.0004 12.4555 24.2378 12.6758 23.3774H20.9258C21.1461 24.2378 21.6465 25.0004 22.3481 25.545C23.0497 26.0896 23.9126 26.3852 24.8008 26.3852C25.689 26.3852 26.5519 26.0896 27.2535 25.545C27.9551 25.0004 28.4555 24.2378 28.6758 23.3774H30.8008C31.3312 23.3774 31.84 23.1666 32.215 22.7916C32.5901 22.4165 32.8008 21.9078 32.8008 21.3774V16.3774C32.8008 15.8469 32.5901 15.3382 32.215 14.9631C31.84 14.5881 31.3312 14.3774 30.8008 14.3774ZM6.33581 10.3774H20.3871L24.3871 14.3774H3.67581L6.33581 10.3774ZM8.80081 24.3774C8.40525 24.3774 8.01857 24.2601 7.68967 24.0403C7.36077 23.8205 7.10443 23.5082 6.95305 23.1427C6.80168 22.7773 6.76207 22.3751 6.83924 21.9872C6.91641 21.5992 7.10689 21.2429 7.3866 20.9631C7.6663 20.6834 8.02267 20.493 8.41063 20.4158C8.79859 20.3386 9.20073 20.3782 9.56618 20.5296C9.93163 20.681 10.244 20.9373 10.4638 21.2662C10.6835 21.5951 10.8008 21.9818 10.8008 22.3774C10.8008 22.9078 10.5901 23.4165 10.215 23.7916C9.83995 24.1666 9.33124 24.3774 8.80081 24.3774ZM24.8008 24.3774C24.4052 24.3774 24.0186 24.2601 23.6897 24.0403C23.3608 23.8205 23.1044 23.5082 22.9531 23.1427C22.8017 22.7773 22.7621 22.3751 22.8392 21.9872C22.9164 21.5992 23.1069 21.2429 23.3866 20.9631C23.6663 20.6834 24.0227 20.493 24.4106 20.4158C24.7986 20.3386 25.2007 20.3782 25.5662 20.5296C25.9316 20.681 26.244 20.9373 26.4638 21.2662C26.6835 21.5951 26.8008 21.9818 26.8008 22.3774C26.8008 22.9078 26.5901 23.4165 26.215 23.7916C25.84 24.1666 25.3312 24.3774 24.8008 24.3774Z" fill="#393939"/>
</g>
<defs>
<clipPath id="clip0_2_21">
<rect width="32" height="32" fill="white" transform="translate(0.800812 0.37735)"/>
</clipPath>
</defs>
</svg>
