<?xml version="1.0" encoding="UTF-8" standalone="no"?><svg width="32" height="32" viewBox="0 0 32 32" fill="none" xmlns="http://www.w3.org/2000/svg">
<path d="M30.9387 21.7987L27.25 7.25C27.1529 6.87125 26.9475 6.52903 26.6589 6.26527C26.3702 6.0015 26.0109 5.82765 25.625 5.765L21.1175 5.025C20.6206 4.94508 20.1117 5.05283 19.6899 5.3273C19.268 5.60177 18.9633 6.02333 18.835 6.51L18.8088 6.61625C18.7918 6.68375 18.789 6.75406 18.8008 6.82268C18.8125 6.89129 18.8385 6.95669 18.8769 7.0147C18.9154 7.07271 18.9656 7.12205 19.0242 7.15955C19.0829 7.19706 19.1487 7.2219 19.2175 7.2325C20.2518 7.3843 21.2722 7.61923 22.2687 7.935C22.5179 8.01017 22.7291 8.17729 22.8596 8.40245C22.99 8.62762 23.0299 8.89398 22.9713 9.1475C22.9375 9.27961 22.8771 9.40343 22.7938 9.51135C22.7104 9.61926 22.6059 9.70899 22.4866 9.77502C22.3673 9.84105 22.2358 9.88199 22.1001 9.89531C21.9644 9.90863 21.8274 9.89407 21.6975 9.8525C17.9998 8.71848 14.0477 8.71413 10.3475 9.84C10.0971 9.9242 9.82387 9.90871 9.58458 9.79674C9.34529 9.68478 9.15832 9.48495 9.0625 9.23875C9.01696 9.11242 8.99733 8.97821 9.00478 8.84412C9.01223 8.71004 9.04661 8.57883 9.10588 8.45832C9.16514 8.33781 9.24807 8.23047 9.34971 8.14271C9.45136 8.05495 9.56964 7.98856 9.6975 7.9475C10.7065 7.62611 11.7399 7.387 12.7875 7.2325C12.8563 7.2219 12.9221 7.19706 12.9808 7.15955C13.0394 7.12205 13.0896 7.07271 13.1281 7.0147C13.1665 6.95669 13.1925 6.89129 13.2042 6.82268C13.216 6.75406 13.2132 6.68375 13.1963 6.61625L13.17 6.51C13.0417 6.02291 12.7366 5.60108 12.3141 5.32676C11.8916 5.05244 11.3822 4.94531 10.885 5.02625L6.375 5.76625C5.98922 5.82881 5.63004 6.00248 5.34142 6.266C5.05281 6.52953 4.84728 6.87148 4.75 7.25L1.06125 21.7987C0.94559 22.2561 0.995927 22.7396 1.2033 23.1633C1.41068 23.5869 1.76165 23.9233 2.19375 24.1125L10.5688 27.8263C10.8206 27.9382 11.0926 27.9975 11.3682 28.0004C11.6438 28.0034 11.9171 27.9499 12.1712 27.8434C12.4254 27.7369 12.6551 27.5795 12.8462 27.3809C13.0373 27.1824 13.1858 26.9468 13.2825 26.6887L13.7188 25.5075C13.7447 25.4367 13.7544 25.361 13.747 25.286C13.7396 25.211 13.7154 25.1386 13.676 25.0743C13.6367 25.01 13.5834 24.9554 13.52 24.9146C13.4566 24.8738 13.3848 24.8479 13.31 24.8388C12.0957 24.6917 10.8976 24.4323 9.73125 24.0637C9.48314 23.9883 9.27284 23.8217 9.14271 23.5974C9.01258 23.3731 8.97231 23.1078 9.03 22.855C9.06344 22.7225 9.12367 22.5983 9.20698 22.49C9.29029 22.3817 9.39491 22.2916 9.51439 22.2253C9.63386 22.159 9.76566 22.1179 9.90163 22.1045C10.0376 22.0911 10.1749 22.1058 10.305 22.1475C14.0166 23.2842 17.9834 23.2842 21.695 22.1475C21.8249 22.106 21.962 22.0914 22.0978 22.1048C22.2336 22.1182 22.3651 22.1593 22.4845 22.2254C22.6038 22.2916 22.7083 22.3815 22.7916 22.4895C22.8749 22.5976 22.9352 22.7215 22.9688 22.8538C23.0271 23.1068 22.9871 23.3725 22.8569 23.5972C22.7267 23.8218 22.516 23.9886 22.2675 24.0637C21.1016 24.4324 19.9039 24.6918 18.69 24.8388C18.6152 24.8479 18.5434 24.8738 18.48 24.9146C18.4166 24.9554 18.3633 25.01 18.324 25.0743C18.2846 25.1386 18.2604 25.211 18.253 25.286C18.2456 25.361 18.2553 25.4367 18.2813 25.5075L18.7175 26.6887C18.8144 26.9467 18.9629 27.1821 19.1541 27.3806C19.3452 27.579 19.5749 27.7364 19.829 27.8429C20.0831 27.9494 20.3563 28.0029 20.6318 28C20.9074 27.9971 21.1794 27.938 21.4312 27.8263L29.8062 24.1125C30.2384 23.9233 30.5893 23.5869 30.7967 23.1633C31.0041 22.7396 31.0544 22.2561 30.9387 21.7987ZM11.5 19C11.2033 19 10.9133 18.912 10.6666 18.7472C10.42 18.5824 10.2277 18.3481 10.1142 18.074C10.0006 17.7999 9.97094 17.4983 10.0288 17.2074C10.0867 16.9164 10.2296 16.6491 10.4393 16.4393C10.6491 16.2296 10.9164 16.0867 11.2074 16.0288C11.4983 15.9709 11.7999 16.0007 12.074 16.1142C12.3481 16.2277 12.5824 16.42 12.7472 16.6666C12.912 16.9133 13 17.2033 13 17.5C13 17.8978 12.842 18.2794 12.5607 18.5607C12.2794 18.842 11.8978 19 11.5 19ZM20.5 19C20.2033 19 19.9133 18.912 19.6666 18.7472C19.42 18.5824 19.2277 18.3481 19.1142 18.074C19.0007 17.7999 18.9709 17.4983 19.0288 17.2074C19.0867 16.9164 19.2296 16.6491 19.4393 16.4393C19.6491 16.2296 19.9164 16.0867 20.2074 16.0288C20.4983 15.9709 20.7999 16.0007 21.074 16.1142C21.3481 16.2277 21.5824 16.42 21.7472 16.6666C21.912 16.9133 22 17.2033 22 17.5C22 17.8978 21.842 18.2794 21.5607 18.5607C21.2794 18.842 20.8978 19 20.5 19Z" fill="black"/>
</svg>
