<?xml version="1.0" encoding="UTF-8" standalone="no"?><svg width="32" height="33" viewBox="0 0 32 33" fill="none" xmlns="http://www.w3.org/2000/svg">
<path d="M27 13.3773V14.3773C26.9979 16.0693 26.3837 17.7034 25.2707 18.9779C24.1578 20.2524 22.6213 21.0811 20.945 21.3111C21.6292 22.1867 22.0006 23.2661 22 24.3773V29.3773C22 29.6426 21.8946 29.8969 21.7071 30.0844C21.5196 30.272 21.2652 30.3773 21 30.3773H13C12.7348 30.3773 12.4804 30.272 12.2929 30.0844C12.1054 29.8969 12 29.6426 12 29.3773V27.3773H9C7.67392 27.3773 6.40215 26.8506 5.46447 25.9129C4.52678 24.9752 4 23.7034 4 22.3773C4 21.5817 3.68393 20.8186 3.12132 20.256C2.55871 19.6934 1.79565 19.3773 1 19.3773C0.734784 19.3773 0.48043 19.272 0.292893 19.0844C0.105357 18.8969 0 18.6426 0 18.3773C0 18.1121 0.105357 17.8578 0.292893 17.6702C0.48043 17.4827 0.734784 17.3773 1 17.3773C1.65661 17.3773 2.30679 17.5067 2.91342 17.7579C3.52005 18.0092 4.07124 18.3775 4.53553 18.8418C4.99983 19.3061 5.36812 19.8573 5.6194 20.4639C5.87067 21.0705 6 21.7207 6 22.3773C6 23.173 6.31607 23.936 6.87868 24.4987C7.44129 25.0613 8.20435 25.3773 9 25.3773H12V24.3773C11.9994 23.2661 12.3708 22.1867 13.055 21.3111C11.3787 21.0811 9.84222 20.2524 8.72928 18.9779C7.61634 17.7034 7.0021 16.0693 7 14.3773V13.3773C7.01245 12.1346 7.34341 10.9157 7.96125 9.83734C7.65559 8.85133 7.55754 7.81269 7.67329 6.7869C7.78903 5.76112 8.11606 4.77044 8.63375 3.87734C8.72154 3.72528 8.84781 3.59902 8.99987 3.51125C9.15193 3.42348 9.32443 3.3773 9.5 3.37734C10.6648 3.3749 11.814 3.64492 12.8558 4.16582C13.8976 4.68672 14.8031 5.44406 15.5 6.37734H18.5C19.1969 5.44406 20.1024 4.68672 21.1442 4.16582C22.186 3.64492 23.3352 3.3749 24.5 3.37734C24.6756 3.3773 24.8481 3.42348 25.0001 3.51125C25.1522 3.59902 25.2785 3.72528 25.3662 3.87734C25.884 4.77042 26.211 5.76115 26.3265 6.78698C26.4421 7.81282 26.3437 8.85146 26.0375 9.83734C26.6565 10.9153 26.9879 12.1343 27 13.3773Z" fill="#393939"/>
</svg>
