<?xml version="1.0" encoding="UTF-8" standalone="no"?><svg width="33" height="33" viewBox="0 0 33 33" fill="none" xmlns="http://www.w3.org/2000/svg">
<path d="M5.24831 12.6348C5.05971 12.4028 4.92553 12.1314 4.85566 11.8407C4.78578 11.55 4.78199 11.2473 4.84456 10.9549C5.77331 6.56485 10.8008 3.37735 16.8008 3.37735C22.8008 3.37735 27.8283 6.56485 28.7571 10.9549C28.8203 11.2475 28.8171 11.5505 28.7475 11.8417C28.678 12.1329 28.5441 12.4048 28.3555 12.6373C28.1669 12.8698 27.9285 13.057 27.6579 13.1851C27.3873 13.3132 27.0914 13.3789 26.7921 13.3773H6.80956C6.51036 13.3783 6.21477 13.312 5.94457 13.1835C5.67436 13.055 5.43643 12.8675 5.24831 12.6348ZM29.4583 19.4373L24.3171 21.3123L19.6758 19.4486C19.4375 19.3533 19.1716 19.3533 18.9333 19.4486L14.3083 21.2999L9.67581 19.4486C9.44775 19.3575 9.19414 19.3535 8.96331 19.4373L3.46331 21.4373C3.23086 21.5397 3.04604 21.7266 2.94638 21.9602C2.84673 22.1938 2.83969 22.4566 2.9267 22.6952C3.01371 22.9338 3.18825 23.1304 3.4149 23.245C3.64154 23.3596 3.90331 23.3837 4.14706 23.3123L5.80081 22.7136V23.3773C5.80081 24.7034 6.3276 25.9752 7.26528 26.9129C8.20296 27.8506 9.47473 28.3773 10.8008 28.3773H22.8008C24.1269 28.3773 25.3987 27.8506 26.3363 26.9129C27.274 25.9752 27.8008 24.7034 27.8008 23.3773V22.1686L30.1421 21.3174C30.2733 21.2789 30.3954 21.214 30.5005 21.1265C30.6057 21.0391 30.6918 20.931 30.7536 20.8089C30.8153 20.6868 30.8513 20.5534 30.8594 20.4168C30.8675 20.2803 30.8475 20.1435 30.8007 20.015C30.7538 19.8865 30.6811 19.769 30.587 19.6697C30.4929 19.5704 30.3794 19.4915 30.2536 19.4378C30.1278 19.3841 29.9923 19.3568 29.8555 19.3576C29.7187 19.3584 29.5835 19.3872 29.4583 19.4424V19.4373ZM3.80081 17.3773H29.8008C30.066 17.3773 30.3204 17.272 30.5079 17.0845C30.6955 16.8969 30.8008 16.6426 30.8008 16.3773C30.8008 16.1121 30.6955 15.8578 30.5079 15.6702C30.3204 15.4827 30.066 15.3773 29.8008 15.3773H3.80081C3.5356 15.3773 3.28124 15.4827 3.0937 15.6702C2.90617 15.8578 2.80081 16.1121 2.80081 16.3773C2.80081 16.6426 2.90617 16.8969 3.0937 17.0845C3.28124 17.272 3.5356 17.3773 3.80081 17.3773Z" fill="#393939"/>
</svg>
