<?xml version="1.0" encoding="UTF-8" standalone="no"?><svg width="24" height="24" viewBox="0 0 24 24" fill="none" xmlns="http://www.w3.org/2000/svg">
<path d="M18.648 15.254C16.832 17.017 12 16.88 12 16.88C10.8985 16.894 9.79804 16.8083 8.712 16.624C9.839 18.609 12.832 19.434 17.694 19.099C15.749 21.112 4.096 24.356 4.026 11.463L4 10.309C4 7.27301 4.023 6.19401 5.352 4.67601C7.023 2.76601 12 3.01001 12 3.01001C12 3.01001 16.977 2.76701 18.648 4.67701C19.977 6.19501 20 7.27401 20 10.31C20 13.346 19.544 14.384 18.648 15.254Z" fill="#393939" stroke="#393939" stroke-width="2" stroke-linecap="round" stroke-linejoin="round"/>
<path d="M12 11.204V8.278M12 8.278C12 7.02 11.105 6 10 6C8.895 6 8 7.02 8 8.278V13M12 8.278C12 7.02 12.895 6 14 6C15.105 6 16 7.02 16 8.278V13" stroke="#FDFDFC" stroke-width="2" stroke-linecap="round" stroke-linejoin="round"/>
</svg>
