<svg xmlns="http://www.w3.org/2000/svg" data-name="Layer 1" viewBox="0 0 64 80" x="0px" y="0px"><defs><style>
      .cls-1 {
        stroke-width: 0px;
      }
    </style></defs><polygon class="cls-1" points="47.13 39.42 32.03 48.48 23.97 43.44 2 61 24.03 50.56 31.97 55.52 50.22 44.57 53.29 49.69 62 34 44.05 34.3 47.13 39.42"/><circle class="cls-1" cx="32" cy="7.5" r="4.5"/><path class="cls-1" d="m49.39,7.99c.69-.4,1.11-1.15,1.11-1.94s-.42-1.53-1.12-1.94c-.7-.41-1.54-.41-2.24-.01l-26.53,15.03c-.69.39-1.12,1.12-1.12,1.92s.42,1.52,1.12,1.92c.7.4,1.53.39,2.22-.03l6.58-3.95-.89,9.8-7.18,5.38c-.53.4-.84,1.03-.84,1.69,0,.8.44,1.52,1.16,1.88.3.15.63.23.95.23.44,0,.88-.14,1.25-.42l19.44-14.37-.58,3.48c-.17,1,.41,1.95,1.37,2.27.57.19,1.2.12,1.72-.2.52-.32.86-.85.95-1.45l.74-5.15c.2-1.42-.43-2.75-1.66-3.49s-2.71-.67-3.86.17l-4.35,3.16.85-7.62,10.92-6.37Z"/><rect class="cls-1" x="12.5" y="40.05" width="5" height="2" transform="translate(-21.63 17.21) rotate(-36.87)"/><rect class="cls-1" x="5.59" y="32.72" width="16.83" height="2" transform="translate(-16.35 13.43) rotate(-33.69)"/><rect class="cls-1" x="2.8" y="39.38" width="2.4" height="2" transform="translate(-21.73 9) rotate(-33.69)"/><rect class="cls-1" x="4.14" y="28.09" width="10.79" height="2" transform="translate(-14.73 10.43) rotate(-34.3)"/><text x="0" y="79" fill="#000000" font-size="5px" font-weight="bold" font-family="'Helvetica Neue', Helvetica, Arial-Unicode, Arial, Sans-serif">Created by Kamin Ginkaew</text><text x="0" y="84" fill="#000000" font-size="5px" font-weight="bold" font-family="'Helvetica Neue', Helvetica, Arial-Unicode, Arial, Sans-serif">from the Noun Project</text></svg>