<?xml version="1.0" encoding="UTF-8" standalone="no"?><svg width="658" height="252" viewBox="0 0 658 252" fill="none" xmlns="http://www.w3.org/2000/svg">
<path d="M62.308 116.488H75.532V77.772L105.025 116.488H116.422V55.588H103.198V93.085L74.662 55.588H62.308V116.488ZM158.881 117.532C177.673 117.532 191.332 103.351 191.332 86.037V85.863C191.332 68.55 177.847 54.543 159.055 54.543C140.263 54.543 126.604 68.725 126.604 86.037V86.211C126.604 103.525 140.089 117.532 158.881 117.532ZM159.055 105.178C148.267 105.178 140.611 96.478 140.611 86.038V85.864C140.611 75.424 148.093 66.897 158.881 66.897C169.669 66.897 177.325 75.597 177.325 86.037V86.211C177.325 96.651 169.843 105.178 159.055 105.178ZM201.477 116.488H214.701V77.772L244.194 116.488H255.591V55.588H242.367V93.085L213.831 55.588H201.477V116.488ZM265.513 95.868H292.309V83.167H265.513V95.868ZM302.244 116.488H315.642V98.218H325.821C339.48 98.218 350.442 90.909 350.442 76.815V76.641C350.442 64.201 341.655 55.587 327.126 55.587H302.244V116.488ZM315.642 86.298V67.68H325.995C332.694 67.68 336.87 70.9 336.87 76.902V77.076C336.87 82.296 332.955 86.299 326.256 86.299H315.642V86.298ZM358.618 116.488H372.016V96.999H382.543L395.593 116.488H411.253L396.376 94.738C404.119 91.867 409.426 85.689 409.426 75.858V75.684C409.426 69.942 407.599 65.158 404.206 61.764C400.204 57.762 394.201 55.587 386.458 55.587H358.618V116.488ZM372.016 85.168V67.68H385.327C391.852 67.68 395.854 70.638 395.854 76.38V76.555C395.854 81.687 392.113 85.167 385.588 85.167L372.016 85.168ZM449.329 117.532C468.121 117.532 481.78 103.351 481.78 86.037V85.863C481.78 68.55 468.295 54.543 449.503 54.543C430.711 54.543 417.052 68.725 417.052 86.037V86.211C417.052 103.525 430.537 117.532 449.329 117.532ZM449.503 105.178C438.715 105.178 431.059 96.478 431.059 86.038V85.864C431.059 75.424 438.541 66.897 449.329 66.897C460.117 66.897 467.773 75.597 467.773 86.037V86.211C467.773 96.651 460.291 105.178 449.503 105.178ZM491.925 116.488H505.323V92.91H534.381V80.73H505.323V67.768H538.296V55.588H491.925V116.488ZM547.888 116.488H561.286V55.588H547.888V116.488ZM588.946 116.488H602.344V67.942H620.875V55.588H570.415V67.942H588.946V116.488ZM62.308 197.488H75.706V173.911H104.764V161.731H75.706V148.768H108.679V136.588H62.308V197.488ZM147.242 198.532C166.034 198.532 179.693 184.351 179.693 167.038V166.864C179.693 149.551 166.208 135.544 147.416 135.544C128.624 135.544 114.965 149.725 114.965 167.038V167.212C114.965 184.525 128.45 198.532 147.242 198.532ZM147.416 186.178C136.628 186.178 128.972 177.478 128.972 167.038V166.864C128.972 156.424 136.454 147.898 147.242 147.898C158.03 147.898 165.686 156.598 165.686 167.038V167.212C165.686 177.652 158.204 186.178 147.416 186.178ZM215.242 198.445C231.598 198.445 241.951 189.397 241.951 170.953V136.588H228.553V171.475C228.553 181.132 223.594 186.091 215.416 186.091C207.238 186.091 202.279 180.958 202.279 171.04V136.588H188.881V171.388C188.881 189.31 198.886 198.445 215.242 198.445ZM253.858 197.488H267.082V158.773L296.575 197.488H307.972V136.588H294.748V174.085L266.212 136.588H253.858V197.488ZM320.851 197.488H344.602C363.742 197.488 376.966 184.177 376.966 167.038V166.864C376.966 149.725 363.742 136.588 344.602 136.588H320.851V197.488ZM344.602 148.681C355.564 148.681 362.959 156.25 362.959 167.038V167.212C362.959 178 355.564 185.395 344.602 185.395H334.249V148.681H344.602ZM377.612 197.488H391.271L396.839 183.829H422.591L428.159 197.488H442.166L416.066 136.153H403.712L377.612 197.488ZM401.624 171.997L409.715 152.248L417.806 171.997H401.624ZM456.19 197.488H469.588V148.942H488.119V136.588H437.659V148.942H456.19V197.488ZM497.292 197.488H510.69V136.588H497.292V197.488ZM553.749 198.532C572.541 198.532 586.2 184.351 586.2 167.038V166.864C586.2 149.551 572.715 135.544 553.923 135.544C535.131 135.544 521.472 149.725 521.472 167.038V167.212C521.472 184.525 534.957 198.532 553.749 198.532ZM553.923 186.178C543.135 186.178 535.479 177.478 535.479 167.038V166.864C535.479 156.424 542.961 147.898 553.749 147.898C564.537 147.898 572.193 156.598 572.193 167.038V167.212C572.193 177.652 564.711 186.178 553.923 186.178ZM596.345 197.488H609.569V158.773L639.062 197.488H650.459V136.588H637.235V174.085L608.699 136.588H596.345V197.488Z" fill="#393939"/>
<path d="M11 0V252" stroke="#393939" stroke-width="22"/>
</svg>
