<?xml version="1.0" encoding="UTF-8" standalone="no"?><svg width="32" height="33" viewBox="0 0 32 33" fill="none" xmlns="http://www.w3.org/2000/svg">
<path d="M28.8 27.7761C28.9118 27.9247 28.9799 28.1015 28.9968 28.2866C29.0137 28.4718 28.9786 28.658 28.8955 28.8243C28.8124 28.9906 28.6846 29.1305 28.5264 29.2282C28.3682 29.3259 28.1859 29.3775 28 29.3774H4C3.81429 29.3774 3.63225 29.3256 3.47427 29.228C3.31629 29.1304 3.18863 28.9907 3.10557 28.8246C3.02252 28.6585 2.98736 28.4725 3.00404 28.2875C3.02072 28.1026 3.08857 27.9259 3.2 27.7774C4.08548 26.5902 5.26628 25.6555 6.625 25.0661C5.88022 24.3864 5.35837 23.4973 5.12794 22.5156C4.8975 21.534 4.96926 20.5056 5.33379 19.5655C5.69832 18.6253 6.33858 17.8173 7.17054 17.2476C8.0025 16.6779 8.98728 16.373 9.99563 16.373C11.004 16.373 11.9887 16.6779 12.8207 17.2476C13.6527 17.8173 14.2929 18.6253 14.6575 19.5655C15.022 20.5056 15.0937 21.534 14.8633 22.5156C14.6329 23.4973 14.111 24.3864 13.3663 25.0661C14.3465 25.4898 15.2373 26.096 15.9913 26.8524C16.7452 26.096 17.636 25.4898 18.6162 25.0661C17.8715 24.3864 17.3496 23.4973 17.1192 22.5156C16.8888 21.534 16.9605 20.5056 17.325 19.5655C17.6896 18.6253 18.3298 17.8173 19.1618 17.2476C19.9938 16.6779 20.9785 16.373 21.9869 16.373C22.9952 16.373 23.98 16.6779 24.812 17.2476C25.6439 17.8173 26.2842 18.6253 26.6487 19.5655C27.0132 20.5056 27.085 21.534 26.8546 22.5156C26.6241 23.4973 26.1023 24.3864 25.3575 25.0661C26.7225 25.6523 27.9097 26.5869 28.8 27.7761ZM3.4 16.1774C3.50506 16.2561 3.62461 16.3135 3.75182 16.3461C3.87903 16.3787 4.01142 16.3859 4.14142 16.3673C4.27142 16.3487 4.39649 16.3047 4.50949 16.2378C4.62249 16.1709 4.72121 16.0824 4.8 15.9774C5.40546 15.1701 6.19055 14.5149 7.09311 14.0636C7.99567 13.6123 8.99091 13.3774 10 13.3774C11.0091 13.3774 12.0043 13.6123 12.9069 14.0636C13.8094 14.5149 14.5945 15.1701 15.2 15.9774C15.2931 16.1015 15.4139 16.2024 15.5528 16.2718C15.6916 16.3412 15.8448 16.3774 16 16.3774C16.1552 16.3774 16.3084 16.3412 16.4472 16.2718C16.5861 16.2024 16.7069 16.1015 16.8 15.9774C17.4055 15.1701 18.1906 14.5149 19.0931 14.0636C19.9957 13.6123 20.9909 13.3774 22 13.3774C23.0091 13.3774 24.0043 13.6123 24.9069 14.0636C25.8094 14.5149 26.5945 15.1701 27.2 15.9774C27.2789 16.0824 27.3777 16.1709 27.4907 16.2378C27.6038 16.3047 27.729 16.3486 27.859 16.3671C27.9891 16.3856 28.1215 16.3783 28.2488 16.3457C28.376 16.313 28.4956 16.2556 28.6006 16.1767C28.7057 16.0979 28.7942 15.9991 28.8611 15.886C28.9279 15.7729 28.9719 15.6478 28.9904 15.5177C29.0089 15.3876 29.0016 15.2552 28.969 15.128C28.9363 15.0007 28.8789 14.8812 28.8 14.7761C27.9145 13.5893 26.7337 12.655 25.375 12.0661C26.1198 11.3864 26.6416 10.4973 26.8721 9.51565C27.1025 8.53399 27.0307 7.5056 26.6662 6.56545C26.3017 5.62531 25.6614 4.81735 24.8295 4.24762C23.9975 3.67789 23.0127 3.37302 22.0044 3.37302C20.996 3.37302 20.0113 3.67789 19.1793 4.24762C18.3473 4.81735 17.7071 5.62531 17.3425 6.56545C16.978 7.5056 16.9063 8.53399 17.1367 9.51565C17.3671 10.4973 17.889 11.3864 18.6338 12.0661C17.6535 12.4898 16.7627 13.096 16.0088 13.8524C15.2548 13.096 14.364 12.4898 13.3837 12.0661C14.1285 11.3864 14.6504 10.4973 14.8808 9.51565C15.1112 8.53399 15.0395 7.5056 14.675 6.56545C14.3104 5.62531 13.6702 4.81735 12.8382 4.24762C12.0062 3.67789 11.0215 3.37302 10.0131 3.37302C9.00478 3.37302 8.02 3.67789 7.18804 4.24762C6.35608 4.81735 5.71582 5.62531 5.35129 6.56545C4.98676 7.5056 4.915 8.53399 5.14544 9.51565C5.37587 10.4973 5.89772 11.3864 6.6425 12.0661C5.2774 12.6528 4.09032 13.5878 3.2 14.7774C3.12121 14.8824 3.06388 15.002 3.03129 15.1292C2.9987 15.2564 2.99148 15.3888 3.01005 15.5188C3.02862 15.6488 3.07262 15.7738 3.13953 15.8868C3.20643 15.9998 3.29494 16.0986 3.4 16.1774Z" fill="#393939"/>
</svg>
